<svg version="1.1" id="Layer_1" xmlns="http://www.w3.org/2000/svg" xmlns:xlink="http://www.w3.org/1999/xlink" x="0px" y="0px"
	 width="100%" viewBox="0 0 496 496" enable-background="new 0 0 496 496" xml:space="preserve">
<path fill="#F3F4F6" opacity="1.000000" stroke="none" 
	d="
M206.606949,148.550522 
	C207.044571,147.794312 207.293869,147.360565 207.566849,146.942276 
	C208.541489,145.448746 209.802841,144.132416 211.648483,145.167480 
	C213.794922,146.371277 212.404449,148.071213 211.736359,149.496231 
	C208.344513,156.731079 204.856552,163.921051 201.489700,171.167374 
	C193.490860,188.382919 185.525726,205.614212 177.597305,222.862274 
	C176.858215,224.470108 175.669952,226.017181 176.109512,228.129730 
	C180.104858,229.610153 182.684067,228.463425 184.192886,224.343948 
	C185.679535,220.285004 187.468613,216.332794 189.232101,212.381561 
	C189.828415,211.045456 190.635056,209.380264 192.540771,210.268555 
	C194.382294,211.126953 193.739594,212.788864 193.182907,214.189102 
	C191.413910,218.638565 189.587296,223.065125 187.521927,228.142181 
	C207.909332,230.285660 227.905182,228.617767 248.927719,230.923401 
	C246.130066,233.967514 244.039413,233.324203 242.225769,233.287842 
	C225.412048,232.950821 208.615219,232.051193 191.785645,232.082855 
	C187.130798,232.091614 184.674927,233.580673 183.487457,237.958160 
	C182.327576,242.233826 179.910904,246.161163 179.725067,251.256027 
	C184.922470,252.127930 187.957962,249.092331 190.518677,245.712479 
	C192.888535,242.584579 195.827271,240.713638 199.569351,240.026657 
	C201.769257,239.622833 204.217804,239.575378 205.036255,242.165268 
	C205.949265,245.054352 204.185349,247.098297 201.626968,247.969528 
	C199.384048,248.733368 196.909103,248.815872 194.641449,249.182404 
	C194.323685,251.151489 195.405960,251.484253 196.625839,251.743118 
	C202.706177,253.033295 208.811493,247.950027 208.522293,241.785278 
	C208.467651,240.620300 208.057144,239.318253 209.491837,238.778442 
	C211.123596,238.164474 211.910919,239.210068 212.464722,240.596725 
	C212.828049,241.506454 213.339951,242.356827 213.864731,243.390182 
	C218.146423,242.886398 219.485748,237.564087 224.514847,237.302704 
	C223.773163,242.797134 218.410904,244.823273 216.351074,249.612717 
	C223.106247,252.617508 226.418106,244.470230 232.083206,244.997726 
	C230.628387,250.362335 221.143188,256.231720 216.456955,254.317780 
	C211.896790,252.455307 207.580185,253.791122 203.401154,254.610443 
	C197.544388,255.758667 193.727432,255.692001 189.012283,252.452057 
	C186.841568,253.452301 184.812622,254.639893 182.627823,255.343674 
	C177.371201,257.036926 173.854263,254.084549 175.103424,248.682755 
	C176.326828,243.392288 178.311722,238.277924 180.021637,232.899918 
	C175.703156,231.429779 173.019592,232.370224 171.291504,236.721542 
	C168.159210,244.608566 164.482269,252.283386 162.046738,260.438995 
	C160.571457,265.379150 158.889679,270.334869 161.301926,275.451996 
	C156.696365,276.613312 154.876938,274.906311 155.225708,270.125122 
	C155.629074,264.595154 157.239334,259.350677 159.234406,254.222336 
	C161.933807,247.283508 164.710526,240.374756 167.458511,233.441956 
	C160.699203,231.122528 158.213379,231.793198 154.246658,237.027954 
	C141.604553,253.711441 127.648926,269.048370 110.105553,280.797302 
	C90.634354,293.837311 69.991699,298.023926 47.606346,289.237579 
	C42.911362,287.394775 38.707684,284.704895 35.141647,281.097565 
	C27.836296,273.707581 27.382311,265.034912 33.790253,256.876495 
	C34.677776,255.746521 36.158432,254.947815 36.134155,252.793182 
	C33.549206,251.407883 30.729279,250.050995 28.066963,248.434525 
	C23.835434,245.865265 23.816938,243.919495 28.206852,241.955414 
	C33.366161,239.647064 38.697231,237.715530 43.991962,235.721924 
	C45.306011,235.227142 47.114460,234.352219 47.766804,236.492233 
	C48.336906,238.362427 46.656380,239.094925 45.278202,239.659988 
	C41.202305,241.331146 37.089920,242.913284 32.494240,244.726547 
	C37.983105,248.428329 42.179501,249.737961 48.383995,246.535156 
	C64.663460,238.131607 82.602127,234.896210 100.663902,232.701218 
	C117.022644,230.713196 133.432800,229.325851 149.937576,229.681503 
	C153.369293,229.755447 155.454712,227.940140 157.302734,225.368011 
	C171.404465,205.740433 184.430862,185.410538 196.969849,164.761887 
	C200.168030,159.495270 203.278641,154.175461 206.606949,148.550522 
M62.645290,289.770142 
	C77.666763,292.767426 90.854774,287.937408 103.350540,280.206482 
	C120.746223,269.444092 134.437851,254.753906 147.045486,238.920868 
	C148.343567,237.290695 149.614090,235.638596 151.541000,233.173218 
	C148.961899,233.173218 147.518356,233.183990 146.075012,233.171509 
	C134.253296,233.069382 122.504227,234.033066 110.747688,235.216293 
	C94.007484,236.901138 77.467171,239.496979 61.514126,244.986191 
	C53.464836,247.755859 45.666264,251.163467 39.468842,257.290680 
	C32.406151,264.273315 32.433064,272.227722 39.609123,279.110382 
	C45.811485,285.059113 53.416794,288.218384 62.645290,289.770142 
M177.426788,212.013351 
	C180.169067,205.951797 182.911346,199.890228 185.653610,193.828659 
	C185.417526,193.715927 185.181427,193.603195 184.945328,193.490463 
	C177.201584,204.945374 169.457825,216.400299 161.403992,228.313919 
	C166.768585,229.340607 170.515244,229.156570 172.280304,223.622284 
	C173.483276,219.850388 175.456512,216.324173 177.426788,212.013351 
z"/>
<path fill="#F3F4F6" opacity="1.000000" stroke="none" 
	d="
M256.337250,276.392029 
	C260.703705,273.355377 265.373138,272.000366 270.086823,271.021759 
	C273.775757,270.255920 276.365814,268.366669 278.645081,265.509033 
	C292.861023,247.685608 303.955048,227.986588 313.777771,207.507065 
	C318.245575,198.192062 322.415619,188.754395 326.175079,179.127319 
	C326.981201,177.063034 327.368134,173.258911 330.770660,174.652283 
	C333.753174,175.873672 331.686981,178.901779 330.935608,180.818161 
	C319.646851,209.611710 305.880219,237.102875 287.629822,262.199188 
	C286.467041,263.798157 285.319336,265.408051 283.119232,268.465698 
	C317.012299,265.525330 349.323395,267.695770 381.716125,274.600922 
	C380.090424,278.119141 378.177032,277.186707 376.491791,276.854248 
	C350.051636,271.638550 323.316528,270.725952 296.480103,271.421356 
	C292.332397,271.528839 288.189850,272.033813 284.057343,272.471985 
	C280.486115,272.850708 277.447937,274.222778 274.841888,276.910919 
	C270.990601,280.883453 266.679840,284.356140 260.921509,285.178101 
	C258.354736,285.544464 255.773682,285.328461 254.319443,282.774017 
	C252.903931,280.287598 254.159500,278.320251 256.337250,276.392029 
M266.712463,276.909637 
	C263.613708,276.627441 261.424774,277.877747 259.593079,281.155701 
	C262.961700,280.788086 265.003326,279.436401 266.712463,276.909637 
z"/>
<path fill="#F3F4F6" opacity="1.000000" stroke="none" 
	d="
M374.945496,244.047089 
	C374.044739,244.715393 372.970703,246.367172 372.097656,245.573380 
	C367.008423,240.946167 365.485474,246.423172 362.842865,248.651871 
	C362.219055,249.177963 361.779449,249.927902 361.276855,250.591324 
	C357.134857,256.058899 349.420105,256.790405 344.122711,252.150284 
	C342.054077,252.498489 340.920013,254.356110 339.242035,255.358673 
	C336.527649,256.980499 333.755493,258.226257 331.277313,255.050949 
	C330.240814,253.722855 329.075623,253.941849 327.716431,254.162140 
	C326.247681,254.400192 324.402588,254.856918 323.379669,253.767776 
	C321.146210,251.389801 319.423035,252.536758 317.361755,253.875671 
	C316.287292,254.573593 314.898834,254.979782 313.609222,255.118774 
	C309.798340,255.529541 307.715454,253.049133 309.162537,249.555466 
	C311.474518,243.973679 315.923889,240.534744 321.617462,238.889786 
	C323.636902,238.306351 326.505798,238.213211 326.833160,241.107941 
	C327.183868,244.209442 324.498169,242.729599 322.896881,242.989334 
	C319.138489,243.598984 317.013062,246.425644 314.552429,249.736389 
	C316.697571,249.539825 317.752563,248.363998 318.936127,247.507339 
	C320.756317,246.189850 322.107056,243.620743 324.817017,244.485657 
	C327.771240,245.428513 325.134125,248.456116 326.558655,250.229141 
	C329.249512,250.498734 330.795135,248.840836 332.013123,246.773346 
	C332.855988,245.342636 333.438141,243.756851 334.297974,242.338028 
	C335.169281,240.900146 335.659271,238.277725 338.090576,239.535965 
	C340.250488,240.653778 339.002289,242.728195 338.398163,244.416382 
	C337.624268,246.579010 336.374939,248.593460 336.269165,251.430954 
	C340.216156,250.219727 341.895874,246.819077 344.366882,244.380051 
	C345.549896,243.212372 346.648712,241.954514 347.881134,240.843414 
	C348.779327,240.033646 349.892975,239.570526 351.072968,240.317780 
	C352.267273,241.074081 352.145844,242.210938 351.900909,243.422577 
	C351.485413,245.477737 350.033020,247.336945 350.688660,249.930862 
	C355.129852,249.068100 358.196228,246.703598 360.068939,242.705627 
	C361.454529,239.747620 363.012634,237.473770 366.938354,239.470551 
	C368.094055,240.058380 369.865356,239.465439 371.351532,239.367706 
	C374.061737,239.189468 375.500549,240.261810 375.082703,243.563690 
	C374.997284,243.984680 374.945496,244.047089 374.945496,244.047089 
z"/>
<path fill="#F3F4F6" opacity="1.000000" stroke="none" 
	d="
M456.350159,203.378021 
	C460.989716,196.434769 465.412048,189.779510 469.852844,183.136581 
	C470.930389,181.524704 471.996643,178.879883 474.271942,180.285202 
	C476.526550,181.677719 474.725433,183.902969 473.702332,185.511688 
	C462.794586,202.663452 451.027130,219.228119 439.275116,235.803604 
	C432.821533,244.906036 426.433746,254.055115 420.011688,263.179932 
	C419.341492,264.132172 418.684540,265.099457 417.941040,265.992828 
	C417.125214,266.973175 416.010803,267.513947 414.860260,266.753021 
	C413.610565,265.926514 413.980438,264.643890 414.628723,263.638611 
	C416.341888,260.982147 418.150452,258.386292 419.953094,255.788574 
	C432.010620,238.412674 444.076538,221.042542 456.350159,203.378021 
z"/>
<path fill="#F3F4F6" opacity="1.000000" stroke="none" 
	d="
M462.392212,252.624542 
	C461.392548,252.974701 460.769562,253.216171 460.126648,253.378952 
	C458.486084,253.794357 456.359406,255.446152 455.500488,252.784256 
	C454.703064,250.312881 457.281647,250.136108 458.825897,249.336945 
	C462.318634,247.529388 466.426544,247.097717 470.276886,244.432800 
	C466.961456,242.787033 464.148041,241.448853 461.394043,239.997864 
	C460.084900,239.308136 458.531586,238.535019 459.577362,236.588043 
	C460.461609,234.941818 461.930420,234.860352 463.443207,235.572311 
	C467.649445,237.551895 471.940674,239.391724 475.977844,241.676331 
	C479.017273,243.396332 478.798431,245.800858 475.689514,247.249680 
	C471.481079,249.210892 467.078857,250.756256 462.392212,252.624542 
z"/>
<path fill="#F3F4F6" opacity="1.000000" stroke="none" 
	d="
M375.020081,243.951172 
	C376.317291,242.709290 377.328918,240.920197 379.715302,241.896713 
	C381.375214,245.007690 377.364624,247.139893 378.161957,250.363083 
	C383.032623,251.226273 385.042542,245.683487 389.295380,245.125427 
	C388.741455,251.019409 380.530457,256.773743 375.345642,255.101013 
	C372.937012,254.323914 372.410736,252.479752 372.844513,250.386520 
	C373.242737,248.464966 374.090515,246.636551 374.842834,244.407089 
	C374.945496,244.047089 374.997284,243.984680 375.020081,243.951172 
z"/>
<path fill="#F3F4F6" opacity="1.000000" stroke="none" 
	d="
M382.508484,232.281769 
	C385.009613,231.982574 385.583130,233.315842 384.926575,234.929688 
	C384.096710,236.969452 383.199005,239.315414 379.971924,238.834717 
	C378.921753,236.049820 380.255646,234.150711 382.508484,232.281769 
z"/>
</svg>