<svg xmlns="http://www.w3.org/2000/svg" version="1.1" xmlns:xlink="http://www.w3.org/1999/xlink" xmlns:svgjs="http://svgjs.dev/svgjs" width="1000" height="1000" viewBox="0 0 1000 1000"><rect width="1000" height="1000" fill="#000000"></rect><g transform="matrix(0.7,0,0,0.7,149.57575757575756,282.1265587044535)"><svg viewBox="0 0 396 247" data-background-color="#ffffff" preserveAspectRatio="xMidYMid meet" height="623" width="1000" xmlns="http://www.w3.org/2000/svg" xmlns:xlink="http://www.w3.org/1999/xlink"><g id="tight-bounds" transform="matrix(1,0,0,1,0.2400000000000091,-0.09999999999999432)"><svg viewBox="0 0 395.52 247.2" height="247.2" width="395.52"><g><svg></svg></g><g><svg viewBox="0 0 395.52 247.2" height="247.2" width="395.52"><g transform="matrix(1,0,0,1,163.9488947368421,37.08)"><svg viewBox="0 0 67.62221052631578 173.04" height="173.04" width="67.62221052631578"><g><svg viewBox="0 0 67.6222105263158 173.04000000000002" height="173.04" width="67.62221052631578"><g><svg viewBox="0 0 67.6222105263158 173.04000000000002" height="173.04000000000002" width="67.6222105263158"><g><svg viewBox="0 0 67.6222105263158 173.04000000000002" height="173.04000000000002" width="67.6222105263158"><g><svg viewBox="0 0 67.6222105263158 173.04000000000002" height="173.04000000000002" width="67.6222105263158"><g transform="matrix(1,0,0,1,0,0)"><svg width="67.6222105263158" viewBox="0.5000009536743164 -35 29.700000762939453 73" height="173.04000000000002" data-palette-color="#5e1914"><svg></svg><svg></svg><g class="undefined-text-0" data-fill-palette-color="primary" id="text-0"><path xmlns="http://www.w3.org/2000/svg" d="M15.6-35l14.6 35h-0.45c-0.147 0-0.247-0.083-0.3-0.25v0l-4.87-11.7h-18.45l-4.88 11.7c-0.047 0.167-0.163 0.25-0.35 0.25v0h-0.4l14.6-35zM14.95-33.15l-8.62 20.7h18.05l-8.63-20.7c-0.08-0.187-0.15-0.357-0.21-0.51-0.06-0.16-0.123-0.333-0.19-0.52v0c-0.067 0.187-0.13 0.36-0.19 0.52-0.053 0.153-0.123 0.323-0.21 0.51z" fill="#ffffff" fill-rule="nonzero" stroke="none" stroke-width="1" stroke-linecap="butt" stroke-linejoin="miter" stroke-miterlimit="10" stroke-dasharray="" stroke-dashoffset="0" font-family="none" font-weight="none" font-size="none" text-anchor="none" style="mix-blend-mode: normal" data-fill-palette-color="primary" opacity="1"></path><path xmlns="http://www.w3.org/2000/svg" d="M6.6 3v34.45h17.85v0.55h-18.45v-35z" fill="#ffffff" fill-rule="nonzero" stroke="none" stroke-width="1" stroke-linecap="butt" stroke-linejoin="miter" stroke-miterlimit="10" stroke-dasharray="" stroke-dashoffset="0" font-family="none" font-weight="none" font-size="none" text-anchor="none" style="mix-blend-mode: normal" data-fill-palette-color="primary" opacity="1"></path></g></svg></g></svg></g></svg></g></svg></g><g></g></svg></g></svg></g><g></g></svg></g><defs></defs></svg><rect width="395.52" height="247.2" fill="none" stroke="none" visibility="hidden"></rect></g></svg></g></svg>